<svg width="434" height="455" viewBox="0 0 434 455" fill="none" xmlns="http://www.w3.org/2000/svg">
<path d="M339.157 454.387C286.976 454.387 244.544 411.933 244.544 359.773V240.2C244.544 224.627 231.872 211.955 216.299 211.955C200.725 211.955 188.053 224.627 188.053 240.2V334.899C188.053 346.973 178.261 356.765 166.187 356.765C154.112 356.765 144.32 346.973 144.32 334.899V240.2C144.32 200.499 176.619 168.221 216.32 168.221C256.021 168.221 288.32 200.52 288.32 240.2V359.773C288.32 387.827 311.147 410.653 339.2 410.653C367.253 410.653 390.08 387.827 390.08 359.773V192.307C390.08 177.309 383.467 163.187 371.925 153.587L257.493 58.4187C233.984 38.856 199.851 38.856 176.32 58.4187L61.888 153.587C50.3467 163.187 43.7333 177.288 43.7333 192.307V360.307C43.7333 388.061 66.3254 410.653 94.0801 410.653H122.368C134.443 410.653 144.235 420.445 144.235 432.52C144.235 444.595 134.443 454.387 122.368 454.387H94.0801C42.1974 454.387 0 412.168 0 360.285V192.285C0 164.253 12.3734 137.885 33.9201 119.944L148.352 24.776C188.075 -8.26933 245.739 -8.248 285.461 24.776L399.893 119.944C421.461 137.885 433.813 164.253 433.813 192.285V359.752C433.813 411.933 391.36 454.365 339.2 454.365L339.157 454.387Z" fill="black"/>
</svg>
